<svg width="31" height="27" viewBox="0 0 31 27" fill="none" xmlns="http://www.w3.org/2000/svg">
<g clip-path="url(#clip0_2377_429)">
<path d="M3.44444 3.75C2.53092 3.75 1.65481 4.06607 1.00885 4.62868C0.362896 5.19129 0 5.95435 0 6.75L0 20.25C0 21.0456 0.362896 21.8087 1.00885 22.3713C1.65481 22.9339 2.53092 23.25 3.44444 23.25H10.3333V3.75H3.44444Z" fill="#22AA00"/>
<path d="M10.3333 3.75H20.6666V23.25H10.3333V3.75Z" fill="#EEEEEE"/>
<path d="M27.5556 3.75H20.6667V23.25H27.5556C28.4691 23.25 29.3452 22.9339 29.9912 22.3713C30.6371 21.8087 31 21.0456 31 20.25V6.75C31 5.95435 30.6371 5.19129 29.9912 4.62868C29.3452 4.06607 28.4691 3.75 27.5556 3.75Z" fill="#22AA00"/>
</g>
<defs>
<clipPath id="clip0_2377_429">
<rect width="31" height="27" fill="white"/>
</clipPath>
</defs>
</svg>
