<svg width="40" height="40" viewBox="0 0 40 40" fill="none" xmlns="http://www.w3.org/2000/svg">
<path d="M31.6667 11.6667H18.3333V23.3334H5V8.33337H1.66667V33.3334H5V28.3334H35V33.3334H38.3333V18.3334C38.3333 16.5653 37.631 14.8696 36.3807 13.6193C35.1305 12.3691 33.4348 11.6667 31.6667 11.6667ZM11.6667 21.6667C12.9928 21.6667 14.2645 21.1399 15.2022 20.2022C16.1399 19.2646 16.6667 17.9928 16.6667 16.6667C16.6667 15.3406 16.1399 14.0689 15.2022 13.1312C14.2645 12.1935 12.9928 11.6667 11.6667 11.6667C10.3406 11.6667 9.06882 12.1935 8.13114 13.1312C7.19346 14.0689 6.66667 15.3406 6.66667 16.6667C6.66667 17.9928 7.19346 19.2646 8.13114 20.2022C9.06882 21.1399 10.3406 21.6667 11.6667 21.6667Z" fill="#6259CA"/>
</svg>
