<svg width="23" height="23" viewBox="0 0 23 23" fill="none" xmlns="http://www.w3.org/2000/svg">
<g clip-path="url(#clip0_0_47)">
<path d="M1.80271 10.9902C2.49553 10.9662 3.0493 10.8248 3.4928 10.6306C3.97466 10.9375 4.54522 11.1149 5.15892 11.1149C5.77263 11.1149 6.34319 10.9375 6.82504 10.6306C7.26614 10.8272 7.81992 10.9662 8.51514 10.9902C8.68534 10.9974 8.80039 10.8152 8.7213 10.6642C8.55349 10.3406 8.34493 9.77719 8.34493 8.9717C8.34493 7.62442 8.2994 4.42163 5.15892 4.42163C2.01847 4.42163 1.97292 7.62442 1.97292 8.9717C1.97292 9.77479 1.76435 10.3382 1.59654 10.6642C1.51743 10.8152 1.6325 10.9974 1.80271 10.9902Z" fill="#BCBAD5"/>
<path d="M0.841321 17.6307H7.73114L7.75751 17.4773C7.88937 16.7149 8.28734 16.0221 8.87705 15.5235C9.1 15.3365 9.34452 15.1806 9.60583 15.0584C9.50514 14.9817 9.41162 14.8978 9.32055 14.8067C8.75719 14.2433 8.44794 13.4954 8.44794 12.6995C8.44794 12.6923 8.44794 12.6827 8.44794 12.6755C7.73117 12.1337 6.83935 11.8173 5.88283 11.8173H4.43247C2.36121 11.8173 0.589605 13.3084 0.237203 15.3509L0.0118571 16.6502C-0.0744216 17.1632 0.321132 17.6307 0.841321 17.6307Z" fill="#BCBAD5"/>
<path d="M22.7622 15.3509C22.4098 13.3084 20.6381 11.8173 18.5669 11.8173H17.1165C16.0953 11.8173 15.1483 12.1793 14.4076 12.7906C14.3812 13.7088 13.9305 14.5286 13.2473 15.0584C13.5086 15.1807 13.7555 15.3365 13.9809 15.5259C14.573 16.0245 14.9686 16.7174 15.1004 17.4797L15.1268 17.6331H22.1605C22.6807 17.6331 23.0762 17.1632 22.9875 16.6526L22.7622 15.3509Z" fill="#BCBAD5"/>
<path d="M14.398 17.6307L14.3932 17.5995C14.2422 16.7173 13.6501 16.0077 12.8685 15.6745C12.5593 15.5426 12.2213 15.4707 11.8689 15.4707H10.9963C10.6942 15.4707 10.4017 15.5234 10.1308 15.6217C9.28218 15.9262 8.6301 16.667 8.46948 17.5995L8.46468 17.6307L8.35441 18.2707C8.29205 18.6375 8.57256 18.9708 8.94414 18.9708H13.9209C14.2925 18.9708 14.5754 18.6351 14.5107 18.2707L14.398 17.6307Z" fill="#BCBAD5"/>
<path d="M9.66581 14.1139C10.0805 14.6293 10.7158 14.9602 11.4302 14.9602C11.4398 14.9602 11.4518 14.9602 11.4614 14.9602C12.696 14.9434 13.6981 13.9197 13.6909 12.6851C13.6861 11.8533 13.2306 11.1269 12.5569 10.7385C12.1997 10.5324 11.9001 10.2399 11.6987 9.8827C11.622 9.74846 11.5525 9.59503 11.4973 9.42964C11.4853 9.39608 11.4566 9.37927 11.4278 9.37927C11.399 9.37927 11.3703 9.39605 11.3583 9.42964C11.3032 9.59503 11.2336 9.74608 11.1569 9.8827C10.9532 10.2447 10.6487 10.5372 10.2891 10.7457C9.61546 11.1365 9.16479 11.8653 9.16479 12.7019C9.16479 13.028 9.23432 13.3372 9.35658 13.6177C9.44044 13.7951 9.54352 13.9629 9.66581 14.1139Z" fill="#BCBAD5"/>
<path d="M17.7638 11.0573C19.5066 11.0573 20.9186 9.64534 20.9186 7.90248V4.79319C20.9186 4.28976 20.4391 3.92297 19.9525 4.05722L16.1096 5.11683C15.2226 5.36135 14.6089 6.16684 14.6089 7.0874V7.90248C14.6089 9.64531 16.0209 11.0573 17.7638 11.0573Z" fill="#BCBAD5"/>
</g>
<defs>
<clipPath id="clip0_0_47">
<rect width="23" height="23" fill="white"/>
</clipPath>
</defs>
</svg>
