<svg width="18" height="23" viewBox="0 0 18 23" fill="none" xmlns="http://www.w3.org/2000/svg">
<path fill-rule="evenodd" clip-rule="evenodd" d="M8.98468 22.6784C7.09684 22.7009 5.21464 22.468 3.38917 21.9863C2.56743 21.7873 1.78436 21.4536 1.07174 20.9986C0.788851 20.7963 0.529832 20.5626 0.299631 20.3019C0.0834101 20.0499 -0.0230003 19.7218 0.004169 19.3908C0.0595381 16.4432 2.11661 13.9128 4.99079 13.2567C5.22089 13.1835 5.47214 13.2254 5.66607 13.3693C6.5717 13.989 7.64318 14.321 8.7405 14.322C9.66326 14.3801 10.5869 14.2227 11.4383 13.8623C11.8115 13.6884 12.1576 13.4565 12.5188 13.2568C12.5801 13.2192 12.6514 13.2015 12.7231 13.2061C15.2623 13.6584 17.2804 15.5932 17.8392 18.1111C17.9134 18.5181 17.9656 18.9287 17.9956 19.3413C18.0299 19.7787 17.8624 20.2078 17.5409 20.5062C17.0608 20.9695 16.4895 21.3277 15.8633 21.558C14.8359 21.9674 13.7632 22.2521 12.668 22.4061C11.4497 22.5974 10.2178 22.6885 8.98472 22.6785L8.98468 22.6784Z" fill="#6259CA"/>
<path fill-rule="evenodd" clip-rule="evenodd" d="M2.97567 3.49396C2.96781 3.64028 2.96159 3.73707 3.10678 3.80911C3.21357 3.86442 3.28336 3.97191 3.29041 4.09199C3.29745 4.21206 3.2407 4.32697 3.14109 4.39438C3.07044 4.43348 3.03194 4.51275 3.04485 4.59247C3.13038 5.72868 3.20244 6.86658 3.30147 8.00166C3.30834 8.49263 3.20828 8.97923 3.00827 9.42768C2.99645 9.46202 2.95201 9.48397 2.92274 9.51324C2.89798 9.48679 2.86026 9.46484 2.84958 9.43389C2.64294 8.9592 2.54543 8.44419 2.56429 7.9268C2.66613 6.93467 2.71171 5.93633 2.78092 4.94082C2.78655 4.85922 2.79782 4.77818 2.80455 4.69658C2.8389 4.57099 2.79129 4.43733 2.6853 4.36174C2.59723 4.28845 2.55312 4.17492 2.56868 4.06139C2.58424 3.94785 2.65723 3.85035 2.76182 3.80348C2.90866 3.73821 2.88448 3.62058 2.89121 3.5221C2.89121 3.48158 2.79779 3.42475 2.73757 3.39323C2.60307 3.32232 2.45619 3.27506 2.32677 3.19515C2.11178 3.06008 2.1101 2.85749 2.33014 2.73086C2.53087 2.62267 2.73754 2.5259 2.94916 2.44104C4.69146 1.68544 6.43432 0.930971 8.17776 0.177631C8.69601 -0.0580225 9.29057 -0.0592505 9.80978 0.174248C11.7078 0.994755 13.6054 1.81563 15.5026 2.63689C15.6534 2.70216 15.829 2.77083 15.8268 2.96441C15.8246 3.158 15.6501 3.22272 15.4987 3.28856C14.8898 3.55305 14.2815 3.81812 13.6703 4.07642C13.5752 4.10273 13.5137 4.19462 13.5256 4.29252C13.533 4.82714 13.515 5.36177 13.5358 5.89638C13.5648 6.11116 13.6132 6.32287 13.6804 6.52894C13.9973 7.95809 13.7215 9.45464 12.9161 10.677C12.3465 11.6779 11.4502 12.4527 10.3775 12.8718C9.03275 13.3982 7.50677 13.1325 6.4191 12.1824C5.20541 11.2324 4.41651 9.84104 4.22433 8.31176C4.12087 7.58512 4.18854 6.84438 4.42187 6.1485C4.45185 6.05593 4.46779 5.95938 4.46913 5.86207C4.47363 5.33813 4.46913 4.8142 4.47363 4.29027C4.48816 4.19811 4.43203 4.10947 4.34252 4.08318C3.89521 3.89634 3.44837 3.69768 2.97567 3.49396Z" fill="#6259CA"/>
</svg>
