<svg width="40" height="40" viewBox="0 0 40 40" fill="none" xmlns="http://www.w3.org/2000/svg">
<path d="M23.3333 20H25.8333V24.7L29.9 27.05L28.65 29.2167L23.3333 26.15V20ZM6.66667 3.33337H30C30.8841 3.33337 31.7319 3.68456 32.357 4.30968C32.9821 4.93481 33.3333 5.78265 33.3333 6.66671V16.8334C35.4 18.9334 36.6667 21.8167 36.6667 25C36.6667 28.0942 35.4375 31.0617 33.2496 33.2496C31.0617 35.4375 28.0942 36.6667 25 36.6667C21.8167 36.6667 18.9333 35.4 16.8333 33.3334H6.66667C5.78261 33.3334 4.93477 32.9822 4.30965 32.3571C3.68453 31.7319 3.33334 30.8841 3.33334 30V6.66671C3.33334 5.78265 3.68453 4.93481 4.30965 4.30968C4.93477 3.68456 5.78261 3.33337 6.66667 3.33337ZM6.66667 25V30H14.45C13.7333 28.4834 13.3333 26.7834 13.3333 25H6.66667ZM6.66667 13.3334H16.6667V8.33337H6.66667V13.3334ZM30 13.3334V8.33337H20V13.3334H30ZM6.66667 21.6667H13.8167C14.3833 19.75 15.4333 18.0334 16.8333 16.6667H6.66667V21.6667ZM25 16.9167C22.8562 16.9167 20.8001 17.7683 19.2842 19.2843C17.7683 20.8002 16.9167 22.8562 16.9167 25C16.9167 29.4667 20.5333 33.0834 25 33.0834C26.0615 33.0834 27.1126 32.8743 28.0934 32.4681C29.0741 32.0618 29.9652 31.4664 30.7158 30.7158C31.4664 29.9652 32.0618 29.0741 32.468 28.0934C32.8743 27.1127 33.0833 26.0616 33.0833 25C33.0833 20.5334 29.4667 16.9167 25 16.9167Z" fill="#6259CA"/>
</svg>
