<svg width="50" height="50" viewBox="0 0 50 50" fill="none" xmlns="http://www.w3.org/2000/svg">
<path d="M25 35.4167V31.25H29.1667V35.4167H25ZM29.1667 27.0833V22.9167H25V27.0833H29.1667ZM29.1667 18.75V14.5833H25V18.75H29.1667ZM20.8333 22.9167H25V18.75H20.8333V22.9167ZM20.8333 31.25H25V27.0833H20.8333V31.25ZM43.75 10.4167V39.5833C43.75 41.875 41.875 43.75 39.5833 43.75H10.4167C8.125 43.75 6.25 41.875 6.25 39.5833V10.4167C6.25 8.125 8.125 6.25 10.4167 6.25H39.5833C41.875 6.25 43.75 8.125 43.75 10.4167ZM39.5833 10.4167H25V14.5833H20.8333V10.4167H10.4167V39.5833H39.5833V10.4167Z" fill="#BCBAD5"/>
</svg>
