<svg width="10" height="11" viewBox="0 0 10 11" fill="none" xmlns="http://www.w3.org/2000/svg">
<path d="M2.22214 2.2V0.55C2.22214 0.246246 2.47087 0 2.7777 0H9.44444C9.75128 0 10 0.246246 10 0.55V8.25C10 8.55377 9.75128 8.8 9.44444 8.8H7.77775V10.4495C7.77775 10.7535 7.52781 11 7.21841 11H0.559262C0.250331 11 0 10.7555 0 10.4495L0.00144444 2.75048C0.00149999 2.44646 0.251469 2.2 0.560795 2.2H2.22214ZM1.11247 3.3L1.11123 9.9H6.66663V3.3H1.11247ZM3.33326 2.2H7.77775V7.7H8.88888V1.1H3.33326V2.2Z" fill="#292929"/>
</svg>
