<svg width="40" height="40" viewBox="0 0 40 40" fill="none" xmlns="http://www.w3.org/2000/svg">
<g clip-path="url(#clip0_2362_902)">
<path d="M39.4095 13.4427L36.5574 10.5906C35.7701 9.80329 34.4927 9.80329 33.7054 10.5906L18.0174 26.278C17.7954 26.4993 17.6287 26.7693 17.5301 27.0666L16.1041 31.3446C16.0327 31.5593 16.0101 31.7799 16.012 31.9993H14.0187H4.00016V33.9993H14.5541H18.0002V33.9873C18.2195 33.9893 18.4402 33.9673 18.6548 33.8952L22.9328 32.4692C23.2302 32.3699 23.5002 32.2032 23.7215 31.9819L39.4088 16.2945C40.1968 15.508 40.1968 14.2307 39.4095 13.4427ZM18.0174 31.9827L19.4434 27.7047L22.2955 30.5567L18.0174 31.9827ZM23.7221 29.1307L20.8695 26.2781L35.1315 12.0167L37.9835 14.8688L23.7221 29.1307Z" fill="#6259CA"/>
<path d="M10.7602 4C7.45148 4 4.76015 6.69133 4.76015 10C4.76015 13.3087 7.45148 16 10.7602 16C14.0688 16 16.7602 13.3087 16.7602 10C16.7602 6.69133 14.0688 4 10.7602 4ZM10.7602 14C8.55086 14 6.76015 12.2093 6.76015 10C6.76015 7.7907 8.55086 6 10.7602 6C12.9695 6 14.7602 7.7907 14.7602 10C14.7602 12.2093 12.9695 14 10.7602 14Z" fill="#6259CA"/>
<path d="M16.7281 17.6427C16.5548 16.6913 15.7268 16 14.7602 16H10.7602H6.76016C5.79352 16 4.96547 16.6913 4.79281 17.6427L4.00016 22H6.03281L6.76016 18H9.76016V22H11.7602V18H14.7602L15.4875 22H17.5202L16.7281 17.6427Z" fill="#6259CA"/>
<path d="M30.0002 6H18.0002V8H30.0002V6Z" fill="#6259CA"/>
<path d="M4.00016 26V28H15.1109L15.6329 26.4334C15.6842 26.2807 15.7682 26.1441 15.8369 26H4.00016Z" fill="#6259CA"/>
<path d="M18.0002 12V14H27.4674L29.4674 12H18.0002Z" fill="#6259CA"/>
<path d="M32.2915 9.17531C32.7735 8.69328 33.3635 8.36664 34.0002 8.18V0H0.000156403V40H34.0002V24.5334L32.0002 26.5334V38H2.00016V2H32.0002V9.46664L32.2915 9.17531Z" fill="#6259CA"/>
</g>
<defs>
<clipPath id="clip0_2362_902">
<rect width="40" height="40" fill="white"/>
</clipPath>
</defs>
</svg>
