<svg width="23" height="23" viewBox="0 0 23 23" fill="none" xmlns="http://www.w3.org/2000/svg">
<path d="M2.95764 4.42764L5.82509 5.74741C6.29151 5.96209 6.59034 6.42859 6.59034 6.94204C6.59034 7.66835 7.17912 8.25714 7.90543 8.25714H15.0944C15.8207 8.25714 16.4095 7.66837 16.4095 6.9421V6.58058C16.4095 6.28744 16.5801 6.02112 16.8464 5.89858C17.3437 5.66971 17.9109 6.03307 17.9109 6.58058V8.51196C17.9109 8.92413 17.4794 9.31612 17.4794 9.72828C17.4794 10.0919 17.7861 10.4692 17.7316 10.8288L17.457 12.6419C17.4457 12.7159 17.4671 12.7908 17.5162 12.8477C17.5651 12.9042 17.6359 12.9366 17.7102 12.9366H19.0562C19.1305 12.9366 19.2013 12.9042 19.2506 12.8473C19.2992 12.7905 19.3206 12.7159 19.3094 12.6419L19.0347 10.8287C18.9803 10.4692 19.2869 10.0919 19.2869 9.72828C19.2869 9.31611 18.8554 8.92415 18.8554 8.51197V6.2552C18.8554 5.47423 19.3099 4.7647 20.0194 4.43828L20.0425 4.42768C20.1764 4.3656 20.263 4.23029 20.263 4.08308C20.263 3.93556 20.1764 3.80021 20.0424 3.73885L12.3021 0.175779C12.0486 0.0592969 11.7787 0 11.4999 0C11.2211 0 10.9513 0.0592969 10.698 0.175779L2.95773 3.7388C2.82364 3.80053 2.73694 3.93552 2.73694 4.08304C2.73694 4.23025 2.82355 4.36555 2.95764 4.42764Z" fill="white"/>
<path d="M18.4413 18.5782L14.9736 17.1615C14.4218 16.908 14.0653 16.3517 14.0653 15.7441V15.2335C14.0653 15.1151 14.0751 14.9976 14.0934 14.8844C14.1279 14.6703 14.2362 14.4782 14.3578 14.2986C14.8445 13.5799 16.123 11.5258 16.3353 9.49559C16.3397 9.45343 16.3066 9.41675 16.2642 9.41675H6.7356C6.69323 9.41675 6.66018 9.45344 6.6646 9.49559C6.85314 11.2949 7.87855 13.113 8.44428 13.9963C8.6776 14.3606 8.92784 14.7679 8.9346 15.2004C8.93477 15.2115 8.93486 15.2225 8.93486 15.2335V15.7441C8.93486 16.3513 8.57813 16.9076 8.02901 17.1602L4.55646 18.5796C3.72954 18.9595 3.13863 19.7205 2.97476 20.6227L2.95751 20.8457C2.86765 22.0076 3.7862 23 4.95156 23H18.0485C19.2139 23 20.1324 22.0075 20.0425 20.8456L20.0247 20.6154C19.8608 19.7201 19.2699 18.9591 18.4413 18.5782Z" fill="white"/>
</svg>
