<svg width="40" height="40" viewBox="0 0 40 40" fill="none" xmlns="http://www.w3.org/2000/svg">
<path d="M20 23.7834L17.7333 21.6667C15.15 19.2834 11.9333 17.6167 8.33333 16.9667V28.55C12.6833 29.1167 16.6667 30.7834 20 33.25C23.3333 30.7834 27.3167 29.1167 31.6667 28.55V16.9667C28.0667 17.6167 24.85 19.2834 22.2667 21.6667M31.6667 13.5834C32.75 13.4167 33.8667 13.3334 35 13.3334V31.6667C29.1667 31.6667 23.9333 33.9167 20 37.5667C16.0667 33.9167 10.8333 31.6667 5 31.6667V13.3334C6.13333 13.3334 7.25 13.4167 8.33333 13.5834C12.8167 14.2667 16.8333 16.3 20 19.2334C23.1667 16.3 27.1833 14.2667 31.6667 13.5834ZM20 10C20.45 10 20.8333 9.83337 21.1833 9.51671C21.5 9.16671 21.6667 8.78337 21.6667 8.33337C21.6667 7.88337 21.5 7.50004 21.1833 7.15004C20.8333 6.85004 20.45 6.66671 20 6.66671C19.55 6.66671 19.1667 6.85004 18.8167 7.15004C18.5167 7.50004 18.3333 7.90004 18.3333 8.33337C18.3333 8.76671 18.5167 9.16671 18.8167 9.51671C19.1667 9.83337 19.5667 10 20 10ZM23.5333 11.8667C22.6 12.8 21.3333 13.3334 20 13.3334C18.6667 13.3334 17.4 12.8 16.4667 11.8667C15.5333 10.9334 15 9.66671 15 8.33337C15 7.00004 15.5333 5.73337 16.4667 4.80004C17.4 3.86671 18.6667 3.33337 20 3.33337C21.3333 3.33337 22.6 3.86671 23.5333 4.80004C24.4667 5.73337 25 7.00004 25 8.33337C25 9.66671 24.4667 10.9334 23.5333 11.8667Z" fill="#6259CA"/>
</svg>
