<svg width="29" height="29" viewBox="0 0 29 29" fill="none" xmlns="http://www.w3.org/2000/svg">
<path d="M12.0833 9.66663V8.45829C12.0833 7.31906 12.0833 6.74946 12.4373 6.39553C12.7912 6.04163 13.3608 6.04163 14.5 6.04163H20.5417C21.6809 6.04163 22.2505 6.04163 22.6044 6.39553C22.9583 6.74946 22.9583 7.31906 22.9583 8.45829V14.5C22.9583 15.6392 22.9583 16.2088 22.6044 16.5627C22.2505 16.9166 21.6809 16.9166 20.5417 16.9166H19.3333M8.45833 22.9583H14.5C15.6392 22.9583 16.2088 22.9583 16.5627 22.6044C16.9167 22.2504 16.9167 21.6808 16.9167 20.5416V14.5C16.9167 13.3607 16.9167 12.7911 16.5627 12.4372C16.2088 12.0833 15.6392 12.0833 14.5 12.0833H8.45833C7.3191 12.0833 6.74949 12.0833 6.39557 12.4372C6.04166 12.7911 6.04166 13.3607 6.04166 14.5V20.5416C6.04166 21.6808 6.04166 22.2504 6.39557 22.6044C6.74949 22.9583 7.3191 22.9583 8.45833 22.9583Z" stroke="#C2BEEA" stroke-width="2" stroke-linecap="round" stroke-linejoin="round"/>
</svg>
