<svg width="40" height="40" viewBox="0 0 40 40" fill="none" xmlns="http://www.w3.org/2000/svg">
<path d="M16.6 18.85C18.0333 13.5 19.1667 10 21.6667 10C24.1667 10 25.3 13.5 26.7333 18.85C28.3333 24.8667 30.1667 31.6667 36.6667 31.6667V28.3334C33 28.3334 31.6667 24.2334 29.95 18C28.4667 12.4334 26.9167 6.66671 21.6667 6.66671C16.4167 6.66671 14.8667 12.4334 13.3833 18C11.7167 24.2334 10.3333 28.3334 6.66667 28.3334V3.33337H3.33333V36.6667H36.6667V33.3334H6.66667V31.6667C13.1667 31.6667 15 24.8667 16.6 18.85Z" fill="#6259CA"/>
</svg>
