<svg width="23" height="23" viewBox="0 0 23 23" fill="none" xmlns="http://www.w3.org/2000/svg">
<path d="M2.95776 4.42764L5.82521 5.74741C6.29163 5.96209 6.59046 6.42859 6.59046 6.94204C6.59046 7.66835 7.17925 8.25714 7.90555 8.25714H15.0945C15.8208 8.25714 16.4096 7.66837 16.4096 6.9421V6.58058C16.4096 6.28744 16.5802 6.02112 16.8465 5.89858C17.3439 5.66971 17.911 6.03307 17.911 6.58058V8.51196C17.911 8.92413 17.4795 9.31612 17.4795 9.72828C17.4795 10.0919 17.7862 10.4692 17.7318 10.8288L17.4571 12.6419C17.4458 12.7159 17.4672 12.7908 17.5163 12.8477C17.5652 12.9042 17.636 12.9366 17.7103 12.9366H19.0563C19.1306 12.9366 19.2014 12.9042 19.2507 12.8473C19.2993 12.7905 19.3207 12.7159 19.3095 12.6419L19.0348 10.8287C18.9804 10.4692 19.287 10.0919 19.287 9.72828C19.287 9.31611 18.8555 8.92415 18.8555 8.51197V6.2552C18.8555 5.47423 19.3101 4.7647 20.0196 4.43828L20.0426 4.42768C20.1765 4.3656 20.2631 4.23029 20.2631 4.08308C20.2631 3.93556 20.1765 3.80021 20.0425 3.73885L12.3022 0.175779C12.0487 0.0592969 11.7788 0 11.5 0C11.2212 0 10.9514 0.0592969 10.6981 0.175779L2.95785 3.7388C2.82376 3.80053 2.73706 3.93552 2.73706 4.08304C2.73706 4.23025 2.82367 4.36555 2.95776 4.42764Z" fill="#BCBAD5"/>
<path d="M18.4414 18.5782L14.9737 17.1615C14.4219 16.908 14.0654 16.3517 14.0654 15.7441V15.2335C14.0654 15.1151 14.0752 14.9976 14.0935 14.8844C14.128 14.6703 14.2363 14.4782 14.3579 14.2986C14.8446 13.5799 16.1231 11.5258 16.3354 9.49559C16.3398 9.45343 16.3067 9.41675 16.2643 9.41675H6.73572C6.69335 9.41675 6.6603 9.45344 6.66472 9.49559C6.85326 11.2949 7.87867 13.113 8.44441 13.9963C8.67772 14.3606 8.92797 14.7679 8.93472 15.2004C8.93489 15.2115 8.93498 15.2225 8.93498 15.2335V15.7441C8.93498 16.3513 8.57826 16.9076 8.02913 17.1602L4.55658 18.5796C3.72966 18.9595 3.13876 19.7205 2.97488 20.6227L2.95763 20.8457C2.86777 22.0076 3.78633 23 4.95168 23H18.0486C19.214 23 20.1326 22.0075 20.0426 20.8456L20.0248 20.6154C19.861 19.7201 19.2701 18.9591 18.4414 18.5782Z" fill="#BCBAD5"/>
</svg>
