<svg width="40" height="40" viewBox="0 0 40 40" fill="none" xmlns="http://www.w3.org/2000/svg">
<g clip-path="url(#clip0_2362_883)">
<path d="M5.4982 23.6606V22.6606H4.4982H3.01225V22.3798C3.01225 21.8192 3.46645 21.365 4.02703 21.365H35.9717C36.5331 21.365 36.9877 21.82 36.9877 22.3798V22.6594H35.5624H34.5624V23.6594V37.0112C34.5624 38.1088 33.6736 38.9999 32.575 38.9999H7.48563C6.38919 38.9999 5.4982 38.1109 5.4982 37.0112V23.6606Z" stroke="#6259CA" stroke-width="2"/>
<path d="M27.6107 13.8967H26.6107V14.8967V17.3768H13.3868V13.5641C13.3868 12.4252 14.3245 11.4857 15.4538 11.4857H24.5689C24.9669 11.4857 25.3381 11.6067 25.6567 11.8169L25.9072 11.9821H26.2073H27.9214H28.9214V10.9821V1.9453C28.9214 1.43228 29.3482 1 29.8806 1C30.4113 1 30.8373 1.43061 30.8373 1.9453V12.4727C30.8373 13.257 30.1973 13.8967 29.4246 13.8967H27.6107Z" stroke="#6259CA" stroke-width="2"/>
<path d="M23.387 4.37437C23.387 6.2373 21.8768 7.74751 20.0139 7.74751C18.151 7.74751 16.6407 6.2373 16.6407 4.37437C16.6407 2.51143 18.151 1.00122 20.0139 1.00122C21.8768 1.00122 23.387 2.51143 23.387 4.37437Z" stroke="#6259CA" stroke-width="2"/>
</g>
<defs>
<clipPath id="clip0_2362_883">
<rect width="40" height="40" fill="white"/>
</clipPath>
</defs>
</svg>
