<svg width="19" height="19" viewBox="0 0 19 19" fill="none" xmlns="http://www.w3.org/2000/svg">
<g clip-path="url(#clip0_2358_465)">
<path d="M8.77479 1.46855V2.92799H2.93702C2.54995 2.92799 2.17873 3.08175 1.90503 3.35545C1.63133 3.62915 1.47757 4.00037 1.47757 4.38744V16.063C1.47757 16.4501 1.63133 16.8213 1.90503 17.095C2.17873 17.3687 2.54995 17.5224 2.93702 17.5224H14.6126C14.9996 17.5224 15.3709 17.3687 15.6446 17.095C15.9183 16.8213 16.072 16.4501 16.072 16.063V10.2252H17.5315V16.063C17.5315 16.8371 17.2239 17.5796 16.6765 18.127C16.1291 18.6744 15.3867 18.9819 14.6126 18.9819H2.93702C2.16288 18.9819 1.42045 18.6744 0.873049 18.127C0.325651 17.5796 0.0181266 16.8371 0.0181266 16.063V4.38744C0.0181266 3.6133 0.325651 2.87087 0.873049 2.32347C1.42045 1.77607 2.16288 1.46855 2.93702 1.46855H8.77479Z" fill="#6259CA"/>
<path d="M14.6126 7.30606C15.3867 7.30606 16.1291 6.99854 16.6765 6.45114C17.2239 5.90374 17.5315 5.16131 17.5315 4.38717C17.5315 3.61304 17.2239 2.87061 16.6765 2.32321C16.1291 1.77581 15.3867 1.46829 14.6126 1.46829C13.8384 1.46829 13.096 1.77581 12.5486 2.32321C12.0012 2.87061 11.6937 3.61304 11.6937 4.38717C11.6937 5.16131 12.0012 5.90374 12.5486 6.45114C13.096 6.99854 13.8384 7.30606 14.6126 7.30606ZM14.6126 8.76551C14.0376 8.76551 13.4683 8.65226 12.9371 8.43223C12.4059 8.21219 11.9232 7.88969 11.5166 7.48312C11.1101 7.07656 10.7876 6.59389 10.5675 6.06269C10.3475 5.53149 10.2342 4.96214 10.2342 4.38717C10.2342 3.8122 10.3475 3.24286 10.5675 2.71166C10.7876 2.18045 11.1101 1.69779 11.5166 1.29122C11.9232 0.884659 12.4059 0.562153 12.9371 0.342121C13.4683 0.12209 14.0376 0.00884074 14.6126 0.00884075C15.7738 0.00884077 16.8874 0.470128 17.7085 1.29122C18.5296 2.11232 18.9909 3.22597 18.9909 4.38717C18.9909 5.54838 18.5296 6.66203 17.7085 7.48312C16.8874 8.30422 15.7738 8.76551 14.6126 8.76551Z" fill="#6259CA"/>
</g>
<defs>
<clipPath id="clip0_2358_465">
<rect width="18.8889" height="18.8889" fill="white" transform="scale(1.00588)"/>
</clipPath>
</defs>
</svg>
