<svg width="17" height="17" viewBox="0 0 17 17" fill="none" xmlns="http://www.w3.org/2000/svg">
<path d="M6.43876 6.37496C6.60528 5.90156 6.93399 5.50237 7.36667 5.24809C7.79932 4.99382 8.30798 4.90088 8.80261 4.98571C9.29723 5.07056 9.74582 5.3277 10.069 5.71163C10.3922 6.09554 10.5691 6.58145 10.5683 7.08329C10.5683 8.49996 8.44334 9.20829 8.44334 9.20829M8.5 12.0416H8.50709M15.5833 8.49996C15.5833 12.4119 12.412 15.5833 8.5 15.5833C4.58799 15.5833 1.41667 12.4119 1.41667 8.49996C1.41667 4.58794 4.58799 1.41663 8.5 1.41663C12.412 1.41663 15.5833 4.58794 15.5833 8.49996Z" stroke="#6259CA" stroke-width="1.5" stroke-linecap="round" stroke-linejoin="round"/>
</svg>
