<svg width="23" height="23" viewBox="0 0 23 23" fill="none" xmlns="http://www.w3.org/2000/svg">
<path fill-rule="evenodd" clip-rule="evenodd" d="M3.8335 4.79163V18.2083C3.8335 19.7962 5.12068 21.0833 6.7085 21.0833H16.2918C17.8797 21.0833 19.1668 19.7962 19.1668 18.2083V8.62496C19.1668 7.03714 17.8797 5.74996 16.2918 5.74996H4.79183C4.26256 5.74996 3.8335 5.32089 3.8335 4.79163ZM6.94808 11.5C6.94808 11.103 7.26988 10.7812 7.66683 10.7812H15.3335C15.7304 10.7812 16.0522 11.103 16.0522 11.5C16.0522 11.8969 15.7304 12.2187 15.3335 12.2187H7.66683C7.26988 12.2187 6.94808 11.8969 6.94808 11.5ZM6.94808 14.8541C6.94808 14.4572 7.26988 14.1354 7.66683 14.1354H12.9377C13.3346 14.1354 13.6564 14.4572 13.6564 14.8541C13.6564 15.2511 13.3346 15.5729 12.9377 15.5729H7.66683C7.26988 15.5729 6.94808 15.2511 6.94808 14.8541Z" fill="white"/>
<path d="M4.2251 3.9168C4.55906 4.06657 4.79167 4.40195 4.79167 4.79167H16.2917C16.6226 4.79167 16.9437 4.83359 17.25 4.91244V4.12662C17.25 2.96023 16.2169 2.06427 15.0623 2.22922L4.71461 3.70746C4.53016 3.73381 4.36302 3.80817 4.2251 3.9168Z" fill="white"/>
</svg>
