<svg width="23" height="23" viewBox="0 0 23 23" fill="none" xmlns="http://www.w3.org/2000/svg">
<path d="M9.90331 18.3141C9.90298 18.6831 9.99583 19.0461 10.1733 19.3697H3.45C3.04352 19.3687 2.65396 19.2068 2.36654 18.9194C2.07912 18.6319 1.91722 18.2424 1.91626 17.8359V15.5359C1.91913 14.52 2.32397 13.5466 3.04231 12.8282C3.76065 12.1099 4.73411 11.7051 5.75 11.7022H12.3813C12.5217 12.1718 12.7505 12.6102 13.0555 12.9938C12.1742 13.1453 11.3746 13.6031 10.7979 14.2866C10.2212 14.9701 9.90437 15.8352 9.90331 16.7295V18.3141ZM9.2 10.5522C8.42523 10.5522 7.66787 10.3224 7.02368 9.892C6.37949 9.46157 5.87741 8.84977 5.58092 8.13399C5.28443 7.4182 5.20685 6.63057 5.358 5.8707C5.50915 5.11082 5.88223 4.41283 6.43007 3.86499C6.97791 3.31715 7.6759 2.94407 8.43578 2.79292C9.19565 2.64177 9.98328 2.71935 10.6991 3.01584C11.4149 3.31233 12.0266 3.81441 12.4571 4.4586C12.8875 5.10279 13.1173 5.86015 13.1173 6.63492C13.1173 7.67384 12.7045 8.67021 11.9699 9.40484C11.2353 10.1395 10.2389 10.5522 9.2 10.5522ZM21.0837 18.3141C21.0828 18.5937 20.9713 18.8617 20.7735 19.0594C20.5758 19.2572 20.3078 19.3687 20.0282 19.3697H12.1089C11.8292 19.3687 11.5613 19.2572 11.3635 19.0594C11.1658 18.8617 11.0543 18.5937 11.0533 18.3141V16.7295C11.0555 16.0303 11.3343 15.3604 11.8287 14.8659C12.3231 14.3715 12.9931 14.0928 13.6923 14.0905H18.4436C19.1428 14.0928 19.8127 14.3715 20.3071 14.8659C20.8015 15.3604 21.0803 16.0303 21.0825 16.7295L21.0837 18.3141ZM18.7656 10.6006C18.7656 11.134 18.6074 11.6555 18.311 12.099C18.0147 12.5425 17.5935 12.8882 17.1006 13.0924C16.6078 13.2965 16.0655 13.3499 15.5424 13.2458C15.0192 13.1418 14.5386 12.8849 14.1614 12.5077C13.7842 12.1305 13.5274 11.6499 13.4233 11.1268C13.3192 10.6036 13.3726 10.0613 13.5768 9.56848C13.7809 9.07566 14.1266 8.65444 14.5701 8.35808C15.0136 8.06173 15.5351 7.90355 16.0685 7.90355C16.7838 7.90355 17.4698 8.1877 17.9756 8.6935C18.4814 9.19929 18.7656 9.8853 18.7656 10.6006Z" fill="#BCBAD5"/>
</svg>
