<svg width="40" height="40" viewBox="0 0 40 40" fill="none" xmlns="http://www.w3.org/2000/svg">
<g clip-path="url(#clip0_2362_924)">
<path d="M11.6667 18.3333C9.83333 18.3333 8.33333 16.8333 8.33333 15V13.3333C8.33333 11.5 9.83333 10 11.6667 10C13.5 10 15 11.5 15 13.3333V15C15 16.8333 13.5 18.3333 11.6667 18.3333ZM8.33333 29.9883L15 30C15.9167 30 16.6667 29.25 16.6667 28.3333V25C16.6667 22.25 14.4167 20 11.6667 20C8.91667 20 6.66667 22.25 6.66667 25V28.3333C6.66667 29.2533 7.41333 29.9883 8.33333 29.9883ZM31.6667 30H21.6667C20.745 30 20 29.255 20 28.3333C20 27.4117 20.745 26.6667 21.6667 26.6667H31.6667C32.5883 26.6667 33.3333 27.4117 33.3333 28.3333C33.3333 29.255 32.5883 30 31.6667 30ZM31.6667 23.3333H21.6667C20.745 23.3333 20 22.5867 20 21.6667C20 20.7467 20.745 20 21.6667 20H31.6667C32.5883 20 33.3333 20.7467 33.3333 21.6667C33.3333 22.5867 32.5883 23.3333 31.6667 23.3333ZM31.6667 16.6667H21.6667C20.745 16.6667 20 15.92 20 15C20 14.08 20.745 13.3333 21.6667 13.3333H31.6667C32.5883 13.3333 33.3333 14.08 33.3333 15C33.3333 15.92 32.5883 16.6667 31.6667 16.6667Z" fill="#6259CA"/>
<path d="M36.6667 3.33337H3.33335C1.50002 3.33337 1.52588e-05 4.83337 1.52588e-05 6.66671V33.3334C1.52588e-05 35.1667 1.50002 36.6667 3.33335 36.6667H36.6667C38.5 36.6667 40 35.1667 40 33.3334V6.66671C40 4.83337 38.5 3.33337 36.6667 3.33337ZM36.6667 32.5C36.6667 32.9667 36.3 33.3334 35.8333 33.3334H4.16668C3.70002 33.3334 3.33335 32.9667 3.33335 32.5V7.50004C3.33335 7.03337 3.70002 6.66671 4.16668 6.66671H35.8333C36.3 6.66671 36.6667 7.03337 36.6667 7.50004V32.5Z" fill="#6259CA"/>
</g>
<defs>
<clipPath id="clip0_2362_924">
<rect width="40" height="40" fill="white"/>
</clipPath>
</defs>
</svg>
