<svg width="51" height="50" viewBox="0 0 51 50" fill="none" xmlns="http://www.w3.org/2000/svg">
<path fill-rule="evenodd" clip-rule="evenodd" d="M25.78 0.0719425L0.245105 15.3929C-0.0926409 15.5955 -0.0785613 16.0896 0.270176 16.2727L25.8057 29.6789C25.956 29.7578 26.1359 29.7559 26.2845 29.6737L45.9753 18.792V48.9903C45.9753 49.548 46.4274 50 46.985 50H48.9514C49.509 50 49.9611 49.548 49.9611 48.9903V16.5893L50.5426 16.268C50.8786 16.0823 50.8926 15.6043 50.568 15.3993L26.3093 0.0780032C26.1481 -0.0237745 25.9434 -0.0261191 25.78 0.0719425ZM25.3822 40.434C19.7417 35.6664 16.412 34.2444 10.1034 34.4553V25.1552C16.4599 26.4905 19.7905 28.1485 25.3822 32.4625C30.6733 28.29 34.0457 26.8982 40.661 25.8195V35.1196C33.4613 35.3316 30.2187 36.6503 25.3822 40.434Z" fill="white"/>
</svg>
