<svg width="19" height="19" viewBox="0 0 19 19" fill="none" xmlns="http://www.w3.org/2000/svg">
<g clip-path="url(#clip0_2358_474)">
<path d="M16.1969 2.80303C14.4757 1.08185 12.1913 0.111737 9.78163 0.111737C9.24963 0.111737 8.84281 0.51856 8.84281 1.05056C8.84281 1.58256 9.24963 1.98938 9.78163 1.98938C11.6906 1.98938 13.5056 2.74044 14.8826 4.08608C16.2282 5.49432 17.0106 7.30937 17.0106 9.21831C17.0106 9.75031 17.4174 10.1571 17.9494 10.1571C18.4814 10.1571 18.8882 9.75031 18.8882 9.21831C18.8882 6.80867 17.9494 4.5242 16.1969 2.80303ZM9.78163 3.89832C9.24963 3.89832 8.84281 4.30514 8.84281 4.83714C8.84281 5.36914 9.24963 5.77596 9.78163 5.77596C10.6892 5.77596 11.5654 6.1202 12.2226 6.77737C12.8797 7.43455 13.224 8.27949 13.224 9.21831C13.224 9.75031 13.6308 10.1571 14.1628 10.1571C14.6948 10.1571 15.1016 9.75031 15.1016 9.21831C15.1016 7.81008 14.5383 6.46443 13.5369 5.46302C12.5355 4.46161 11.1899 3.89832 9.78163 3.89832ZM8.43599 12.8797L9.24963 10.6891C9.81293 10.9082 10.4388 10.783 10.9082 10.3449C11.5341 9.71902 11.5341 8.7489 10.9082 8.12302C10.2823 7.49714 9.31222 7.49714 8.68634 8.12302C8.21693 8.59243 8.12305 9.2809 8.3734 9.87549L6.33928 10.783L2.67788 7.12161C2.42752 6.87126 1.98941 6.87126 1.77035 7.1529C-0.576707 9.96937 -0.420236 14.1628 2.23976 16.8228C4.86846 19.4515 9.06187 19.6079 11.9096 17.2922C12.1913 17.0731 12.1913 16.635 11.9409 16.3847C11.9096 16.3534 8.43599 12.8797 8.43599 12.8797Z" fill="#6259CA"/>
</g>
<defs>
<clipPath id="clip0_2358_474">
<rect width="18.8889" height="18.8889" fill="white" transform="scale(1.00588)"/>
</clipPath>
</defs>
</svg>
