<svg width="40" height="40" viewBox="0 0 40 40" fill="none" xmlns="http://www.w3.org/2000/svg">
<path d="M10.7158 9.164L6.23414 7.10127L19.0231 1.21422C19.0231 1.21422 19.0231 1.21421 19.0231 1.21421C19.0232 1.21417 19.0233 1.21412 19.0234 1.21408C19.3332 1.07165 19.6598 1 19.9998 1C20.3398 1 20.6666 1.07161 20.9768 1.21408C20.977 1.21417 20.9771 1.21425 20.9773 1.21434L33.766 7.10126L33.5381 7.20613C32.4738 7.69576 31.792 8.76006 31.792 9.93152V10.2069C31.2035 9.28528 29.9856 8.84124 28.88 9.34996C28.0622 9.72629 27.5382 10.5442 27.5382 11.4445V12.3602C27.5382 12.9125 27.0905 13.3602 26.5382 13.3602H13.4615C12.9092 13.3602 12.4615 12.9125 12.4615 12.3602V11.8892C12.4615 10.7179 11.7798 9.65372 10.7158 9.164ZM31.6855 16.2781C31.7655 16.1304 31.8771 15.9245 31.9707 15.6812C32.0643 15.9245 32.1758 16.1304 32.2559 16.2781C32.2665 16.2978 32.2766 16.3164 32.286 16.3339C32.5059 16.7436 32.5424 16.8601 32.5424 16.9188C32.5424 17.0085 32.502 17.1287 32.3523 17.5247L32.3443 17.5456C32.2322 17.8417 32.0252 18.3883 32.1152 18.9824L32.4963 21.4985H31.4452L31.8264 18.9824C31.9164 18.3883 31.7093 17.8417 31.5971 17.5456C31.5944 17.5384 31.5918 17.5315 31.5892 17.5246C31.4394 17.1286 31.399 17.0084 31.399 16.9188C31.399 16.8601 31.4355 16.7436 31.6554 16.3339C31.6648 16.3164 31.6749 16.2978 31.6855 16.2781Z" stroke="#6259CA" stroke-width="2"/>
<path d="M15.7873 24.1983C15.0045 23.0321 13.3111 20.241 12.7344 17.3771H27.2655C26.6324 20.5249 24.6503 23.5786 24.0107 24.4979L24.8316 25.069L24.0107 24.4979C23.849 24.7302 23.669 25.0408 23.5812 25.4264C23.5041 25.7648 23.4612 26.1261 23.4612 26.4932V27.3812C23.4612 28.8283 24.3087 30.1508 25.6235 30.755L25.643 30.7639L25.6628 30.772L31.6725 33.2273C32.7932 33.7494 33.5956 34.7761 33.8327 35.9849L33.9827 37.9229C34.0277 38.5038 33.5684 39 32.9857 39H7.01433C6.43165 39 5.97238 38.5039 6.01731 37.9229L6.16628 35.9969C6.40374 34.7754 7.20699 33.7495 8.32342 33.2297L14.3418 30.7695L14.3617 30.7614L14.3813 30.7524C15.6917 30.1497 16.5388 28.8271 16.5388 27.3812V26.4932C16.5388 26.259 16.5213 26.0259 16.4863 25.7953L15.4976 25.9451L16.4863 25.7953C16.3857 25.131 16.0364 24.5694 15.7873 24.1983ZM12.5852 16.4105C12.5851 16.4103 12.5851 16.4102 12.5851 16.41L12.5852 16.4105Z" stroke="#6259CA" stroke-width="2"/>
</svg>
