<svg width="40" height="40" viewBox="0 0 40 40" fill="none" xmlns="http://www.w3.org/2000/svg">
<path d="M32.8 0.800049H7.2C5.44 0.800049 4 2.24005 4 4.00005V36C4 37.76 5.44 39.2001 7.2 39.2001H32.8C34.56 39.2001 36 37.76 36 36V4.00005C36 2.24005 34.56 0.800049 32.8 0.800049ZM13.6 32.8C13.6 33.68 12.88 34.4001 12 34.4001H8.8C7.92 34.4001 7.2 33.68 7.2 32.8V32C7.2 31.12 7.92 30.4 8.8 30.4H12C12.88 30.4 13.6 31.12 13.6 32V32.8ZM13.6 26.4C13.6 27.28 12.88 28 12 28H8.8C7.92 28 7.2 27.28 7.2 26.4V25.6C7.2 24.72 7.92 24 8.8 24H12C12.88 24 13.6 24.72 13.6 25.6V26.4ZM13.6 20C13.6 20.88 12.88 21.6 12 21.6H8.8C7.92 21.6 7.2 20.88 7.2 20V19.2C7.2 18.32 7.92 17.6 8.8 17.6H12C12.88 17.6 13.6 18.32 13.6 19.2V20ZM23.2 32.8C23.2 33.68 22.48 34.4001 21.6 34.4001H18.4C17.52 34.4001 16.8 33.68 16.8 32.8V32C16.8 31.12 17.52 30.4 18.4 30.4H21.6C22.48 30.4 23.2 31.12 23.2 32V32.8ZM23.2 26.4C23.2 27.28 22.48 28 21.6 28H18.4C17.52 28 16.8 27.28 16.8 26.4V25.6C16.8 24.72 17.52 24 18.4 24H21.6C22.48 24 23.2 24.72 23.2 25.6V26.4ZM23.2 20C23.2 20.88 22.48 21.6 21.6 21.6H18.4C17.52 21.6 16.8 20.88 16.8 20V19.2C16.8 18.32 17.52 17.6 18.4 17.6H21.6C22.48 17.6 23.2 18.32 23.2 19.2V20ZM32.8 32.8C32.8 33.68 32.08 34.4001 31.2 34.4001H28C27.12 34.4001 26.4 33.68 26.4 32.8V32C26.4 31.12 27.12 30.4 28 30.4H31.2C32.08 30.4 32.8 31.12 32.8 32V32.8ZM32.8 26.4C32.8 27.28 32.08 28 31.2 28H28C27.12 28 26.4 27.28 26.4 26.4V25.6C26.4 24.72 27.12 24 28 24H31.2C32.08 24 32.8 24.72 32.8 25.6V26.4ZM32.8 20C32.8 20.88 32.08 21.6 31.2 21.6H28C27.12 21.6 26.4 20.88 26.4 20V19.2C26.4 18.32 27.12 17.6 28 17.6H31.2C32.08 17.6 32.8 18.32 32.8 19.2V20ZM32.8 12.8C32.8 13.68 32.08 14.4 31.2 14.4H8.8C7.92 14.4 7.2 13.68 7.2 12.8V6.40005C7.2 5.52005 7.92 4.80005 8.8 4.80005H31.2C32.08 4.80005 32.8 5.52005 32.8 6.40005V12.8Z" fill="#6259CA"/>
</svg>
