<svg width="40" height="40" viewBox="0 0 40 40" fill="none" xmlns="http://www.w3.org/2000/svg">
<g clip-path="url(#clip0_2362_889)">
<path d="M23.0026 13.4886C23.0026 13.4534 23.0144 13.4065 23.026 13.3596L25.2088 6.20089C25.338 5.79011 25.866 5.59058 26.4059 5.59058C26.9457 5.59058 27.4738 5.79003 27.6029 6.20089L29.7974 13.3596C29.8092 13.4067 29.8209 13.4534 29.8209 13.4886C29.8209 13.9229 29.152 14.2398 28.6473 14.2398C28.3538 14.2398 28.1192 14.1459 28.0487 13.8995L27.6498 12.4325H25.1734L24.7745 13.8995C24.704 14.1459 24.4694 14.2398 24.1759 14.2398C23.6714 14.2397 23.0026 13.9228 23.0026 13.4886ZM27.2626 11.024L26.4059 7.87894L25.5491 11.024H27.2626Z" fill="#6259CA"/>
<path d="M30.0893 7.78793V6.95488H29.2563C29.0158 6.95488 28.8527 6.7402 28.8527 6.41395C28.8527 6.1048 29.0159 5.86441 29.2563 5.86441H30.0893V5.04004C30.0893 4.83395 30.3297 4.62793 30.6388 4.62793C30.9652 4.62793 31.1798 4.83395 31.1798 5.04004V5.86441H32.0042C32.2103 5.86441 32.4165 6.1048 32.4165 6.41395C32.4165 6.7402 32.2104 6.95488 32.0042 6.95488H31.1798V7.78793C31.1798 8.02832 30.9652 8.19145 30.6388 8.19145C30.3297 8.19152 30.0893 8.0284 30.0893 7.78793Z" fill="#6259CA"/>
<path d="M32.5566 40H7.44328C5.16601 40 3.31328 38.1473 3.31328 35.8699V9.07195C3.31328 7.82836 3.79726 6.65961 4.6764 5.78078L9.0939 1.36305C9.80547 0.651484 10.7454 0.183906 11.7407 0.04625C11.9497 0.0154688 12.1665 0 12.3852 0H32.5566C34.8338 0 36.6866 1.85273 36.6866 4.13008V25.4284C36.6866 26.066 36.1694 26.5831 35.5318 26.5831C34.8941 26.5831 34.377 26.066 34.377 25.4284V4.13008C34.377 3.12633 33.5605 2.30953 32.5566 2.30953H12.3852C12.2769 2.30953 12.1719 2.31695 12.0728 2.33172C12.0684 2.33242 12.0641 2.33297 12.0598 2.33359C11.559 2.40227 11.0855 2.6375 10.7271 2.99609L6.30945 7.41391C5.86672 7.85656 5.62297 8.44539 5.62297 9.07188V35.8699C5.62297 36.8737 6.43953 37.6905 7.44336 37.6905H32.5567C33.5605 37.6905 34.3771 36.8738 34.3771 35.8699V32.0677C34.3771 31.43 34.8942 30.9129 35.5319 30.9129C36.1695 30.9129 36.6866 31.43 36.6866 32.0677V35.8699C36.6865 38.1473 34.8337 40 32.5566 40Z" fill="#6259CA"/>
<path d="M11.9032 1.18945V38.8451H7.44336C5.80024 38.8451 4.46805 37.5129 4.46805 35.8698V9.07195C4.46805 8.14375 4.83609 7.25406 5.49281 6.59727L9.91047 2.17961C10.4521 1.63805 11.1534 1.29234 11.9032 1.18945Z" fill="#6259CA"/>
<path d="M11.903 40H7.44328C5.16601 40 3.31328 38.1472 3.31328 35.8699V9.07191C3.31328 7.82832 3.79734 6.65957 4.6764 5.78074L9.0939 1.36301C9.80695 0.650039 10.7488 0.182149 11.7463 0.0455081C12.0762 -0.000195071 12.4108 0.100039 12.6622 0.319336C12.9137 0.538633 13.058 0.855977 13.058 1.18957V38.8452C13.0579 39.4829 12.5409 40 11.903 40ZM10.7483 2.9752C10.7411 2.98215 10.7341 2.98918 10.727 2.99621L6.30945 7.41387C5.86672 7.85652 5.62297 8.44535 5.62297 9.07184V35.8699C5.62297 36.8736 6.43953 37.6904 7.44336 37.6904H10.7484L10.7483 2.9752Z" fill="#6259CA"/>
<path d="M29.0071 26.583H11.903C11.2654 26.583 10.7483 26.0659 10.7483 25.4282C10.7483 24.7905 11.2654 24.2734 11.903 24.2734H29.0071C29.6448 24.2734 30.1619 24.7905 30.1619 25.4282C30.1619 26.0659 29.6449 26.583 29.0071 26.583Z" fill="#6259CA"/>
<path d="M29.0071 19.8269H11.903C11.2654 19.8269 10.7483 19.3098 10.7483 18.6721C10.7483 18.0344 11.2654 17.5173 11.903 17.5173H29.0071C29.6448 17.5173 30.1619 18.0344 30.1619 18.6721C30.1619 19.3097 29.6449 19.8269 29.0071 19.8269Z" fill="#6259CA"/>
<path d="M29.0071 33.3393H11.903C11.2654 33.3393 10.7483 32.8222 10.7483 32.1846C10.7483 31.5469 11.2654 31.0298 11.903 31.0298H29.0071C29.6448 31.0298 30.1619 31.5469 30.1619 32.1846C30.1619 32.8222 29.6449 33.3393 29.0071 33.3393Z" fill="#6259CA"/>
</g>
<defs>
<clipPath id="clip0_2362_889">
<rect width="40" height="40" fill="white"/>
</clipPath>
</defs>
</svg>
