<svg width="40" height="40" viewBox="0 0 40 40" fill="none" xmlns="http://www.w3.org/2000/svg">
<g clip-path="url(#clip0_2362_933)">
<path d="M37.3301 13.4794H35.5824V2.76674C35.5838 2.56155 35.5315 2.35955 35.4308 2.18079C35.33 2.00204 35.1842 1.85274 35.0079 1.7477C34.1721 1.28726 33.2575 0.987421 32.3113 0.863676C31.2528 0.692986 28.8542 -0.00378418 20.0102 -0.00378418H19.9949C11.1509 -0.00378418 8.7523 0.692986 7.69377 0.863676C6.74638 0.987457 5.83049 1.28728 4.99331 1.7477C4.81739 1.85325 4.67186 2.00263 4.57095 2.18124C4.47003 2.35986 4.41717 2.56159 4.41754 2.76674V13.4794H2.6737C2.59671 13.4794 2.52047 13.4946 2.44937 13.5242C2.37827 13.5537 2.3137 13.597 2.25938 13.6516C2.20505 13.7061 2.16204 13.7709 2.13281 13.8421C2.10357 13.9134 2.08869 13.9897 2.08903 14.0667V20.4892C2.08886 20.5661 2.10386 20.6422 2.13317 20.7133C2.16247 20.7844 2.20552 20.849 2.25983 20.9034C2.31413 20.9579 2.37864 21.001 2.44966 21.0305C2.52068 21.06 2.59681 21.0751 2.6737 21.0751H4.41754V36.0487C4.41754 36.1258 4.43274 36.2021 4.46227 36.2732C4.49179 36.3444 4.53507 36.409 4.58962 36.4635C4.64416 36.5179 4.70891 36.561 4.78014 36.5904C4.85138 36.6198 4.92771 36.6348 5.00476 36.6347H5.62129V38.0358C5.62129 40.1109 7.16514 40.0013 9.10514 40.0013C11.0451 40.0013 12.6476 40.1109 12.6476 38.0358V36.7327H27.3575V38.032C27.3575 40.107 28.9548 39.9975 30.8999 39.9975C32.845 39.9975 34.3876 40.107 34.3876 38.032V36.6308H35.0003C35.077 36.6307 35.153 36.6154 35.2238 36.5858C35.2946 36.5563 35.3588 36.513 35.4129 36.4586C35.467 36.4042 35.5098 36.3396 35.5389 36.2686C35.568 36.1976 35.5828 36.1216 35.5824 36.0449V21.0751H37.3301C37.4855 21.0751 37.6345 21.0134 37.7444 20.9035C37.8543 20.7936 37.916 20.6446 37.916 20.4892V14.0667C37.9162 13.9896 37.9012 13.9133 37.8718 13.842C37.8424 13.7708 37.7993 13.7061 37.7449 13.6515C37.6904 13.597 37.6258 13.5537 37.5546 13.5242C37.4835 13.4946 37.4071 13.4794 37.3301 13.4794ZM12.7622 3.69662H27.2403V8.37912H12.7622V3.69662ZM14.3379 31.3382C14.3359 31.5244 14.2603 31.7024 14.1276 31.8331C13.995 31.9639 13.816 32.0369 13.6297 32.0362H7.56893C7.38343 32.0359 7.20555 31.9624 7.0739 31.8317C6.94225 31.701 6.86747 31.5237 6.86579 31.3382V29.23C6.86612 29.0433 6.94019 28.8642 7.07188 28.7318C7.20356 28.5994 7.3822 28.5244 7.56893 28.5231H13.6297C13.8172 28.5234 13.997 28.598 14.1297 28.7304C14.2624 28.8629 14.3373 29.0425 14.3379 29.23V31.3382ZM33.138 31.3382C33.1363 31.5234 33.0617 31.7006 32.9304 31.8313C32.799 31.9619 32.6214 32.0356 32.4361 32.0362H26.3766C26.1902 32.0369 26.0111 31.9639 25.8782 31.8332C25.7454 31.7025 25.6695 31.5246 25.6671 31.3382V29.23C25.6678 29.0423 25.7429 28.8625 25.8759 28.73C26.0088 28.5975 26.1889 28.5231 26.3766 28.5231H32.4361C32.6227 28.5247 32.801 28.5999 32.9324 28.7323C33.0638 28.8647 33.1377 29.0435 33.138 29.23V31.3382ZM33.138 23.3947C33.138 23.5499 33.0764 23.6988 32.9668 23.8086C32.8572 23.9185 32.7085 23.9803 32.5533 23.9807H7.45175C7.3748 23.9807 7.2986 23.9655 7.22751 23.9361C7.15642 23.9066 7.09183 23.8635 7.03742 23.8091C6.98301 23.7546 6.93985 23.6901 6.9104 23.619C6.88095 23.5479 6.86579 23.4717 6.86579 23.3947V12.4846C6.86562 12.4076 6.88067 12.3313 6.91006 12.2602C6.93945 12.189 6.98259 12.1243 7.03704 12.0699C7.09148 12.0154 7.15615 11.9723 7.22731 11.9429C7.29848 11.9135 7.37475 11.8985 7.45175 11.8986H32.5533C32.6302 11.8986 32.7064 11.9138 32.7774 11.9433C32.8484 11.9727 32.9129 12.0159 32.9672 12.0703C33.0215 12.1248 33.0646 12.1894 33.0939 12.2605C33.1232 12.3315 33.1382 12.4077 33.138 12.4846V23.3947Z" fill="#6259CA"/>
</g>
<defs>
<clipPath id="clip0_2362_933">
<rect width="40" height="40" fill="white"/>
</clipPath>
</defs>
</svg>
