<svg width="23" height="23" viewBox="0 0 23 23" fill="none" xmlns="http://www.w3.org/2000/svg">
<path fill-rule="evenodd" clip-rule="evenodd" d="M3.83325 4.79163V18.2083C3.83325 19.7962 5.12044 21.0833 6.70825 21.0833H16.2916C17.8794 21.0833 19.1666 19.7962 19.1666 18.2083V8.62496C19.1666 7.03714 17.8794 5.74996 16.2916 5.74996H4.79159C4.26232 5.74996 3.83325 5.32089 3.83325 4.79163ZM6.94783 11.5C6.94783 11.103 7.26963 10.7812 7.66658 10.7812H15.3333C15.7302 10.7812 16.052 11.103 16.052 11.5C16.052 11.8969 15.7302 12.2187 15.3333 12.2187H7.66658C7.26963 12.2187 6.94783 11.8969 6.94783 11.5ZM6.94783 14.8541C6.94783 14.4572 7.26963 14.1354 7.66658 14.1354H12.9374C13.3344 14.1354 13.6562 14.4572 13.6562 14.8541C13.6562 15.2511 13.3344 15.5729 12.9374 15.5729H7.66658C7.26963 15.5729 6.94783 15.2511 6.94783 14.8541Z" fill="#BCBAD5"/>
<path d="M4.2251 3.9168C4.55906 4.06657 4.79167 4.40195 4.79167 4.79167H16.2917C16.6226 4.79167 16.9437 4.83359 17.25 4.91244V4.12662C17.25 2.96023 16.2169 2.06427 15.0623 2.22922L4.71461 3.70746C4.53016 3.73381 4.36302 3.80817 4.2251 3.9168Z" fill="#BCBAD5"/>
</svg>
