<svg width="40" height="40" viewBox="0 0 40 40" fill="none" xmlns="http://www.w3.org/2000/svg">
<path d="M21.1269 21.9969C19.9264 22.4524 18.853 23.2079 18.0147 24.2013C16.8598 25.57 16.2253 27.3027 16.2232 29.0936V29.0947V31.8496V31.8505H17.2232M21.1269 21.9969L16.5858 33.6863C16.4531 33.3642 16.3559 33.0289 16.2957 32.6863H17.3152C17.254 32.413 17.2229 32.1328 17.2232 31.8505M21.1269 21.9969C21.017 21.7866 20.9168 21.5713 20.8268 21.3516H10.0015L21.1269 21.9969ZM17.2232 31.8505V29.0947V31.8505ZM20.833 8.30963L21.6645 7.75406L20.833 8.30963C21.4717 9.26551 21.8126 10.3893 21.8126 11.539C21.8126 13.0806 21.2002 14.559 20.1101 15.6491C19.0201 16.7392 17.5416 17.3516 16 17.3516C14.8504 17.3516 13.7266 17.0107 12.7707 16.372C11.8148 15.7333 11.0698 14.8255 10.6298 13.7634C10.1899 12.7012 10.0748 11.5325 10.2991 10.405C10.5233 9.27742 11.0769 8.24171 11.8898 7.4288C12.7028 6.61589 13.7385 6.06229 14.866 5.83801C15.9936 5.61373 17.1623 5.72884 18.2244 6.16878C19.2865 6.60873 20.1943 7.35375 20.833 8.30963ZM35.6674 31.8491C35.6661 32.0707 35.5775 32.2829 35.4207 32.4397C35.2638 32.5966 35.0514 32.6852 34.8295 32.6863H21.061C20.8392 32.6852 20.6267 32.5966 20.4698 32.4397C20.3129 32.2828 20.2243 32.0703 20.2232 31.8485V29.0963C20.2266 28.145 20.6061 27.2336 21.2788 26.5609C21.9515 25.8882 22.8629 25.5088 23.8142 25.5053H32.0743C33.0256 25.5088 33.9369 25.8882 34.6096 26.5609C35.2826 27.2338 35.662 28.1455 35.6653 29.0972C35.6653 29.0974 35.6653 29.0977 35.6653 29.0979L35.6674 31.8491ZM31.6358 18.4358C31.6358 19.1657 31.4193 19.8792 31.0138 20.4861C30.6083 21.093 30.0319 21.5661 29.3576 21.8454C28.6832 22.1247 27.9412 22.1978 27.2253 22.0554C26.5094 21.913 25.8518 21.5615 25.3357 21.0454C24.8195 20.5293 24.468 19.8717 24.3256 19.1558C24.1832 18.4399 24.2563 17.6978 24.5357 17.0235C24.815 16.3491 25.288 15.7728 25.8949 15.3672C26.5018 14.9617 27.2153 14.7453 27.9453 14.7453C28.9241 14.7453 29.8627 15.1341 30.5549 15.8262C31.247 16.5183 31.6358 17.457 31.6358 18.4358Z" stroke="#6259CA" stroke-width="2"/>
</svg>
